<svg width="37" height="33" viewBox="0 0 37 33" fill="none" xmlns="http://www.w3.org/2000/svg">
<path d="M35.3077 7.99754C34.9042 6.47322 33.7155 5.27272 32.2061 4.86531C29.4703 4.125 18.5 4.125 18.5 4.125C18.5 4.125 7.52976 4.125 4.79388 4.86531C3.28453 5.27278 2.09577 6.47322 1.69231 7.99754C0.959244 10.7604 0.959244 16.525 0.959244 16.525C0.959244 16.525 0.959244 22.2896 1.69231 25.0525C2.09577 26.5768 3.28453 27.7273 4.79388 28.1347C7.52976 28.875 18.5 28.875 18.5 28.875C18.5 28.875 29.4702 28.875 32.2061 28.1347C33.7155 27.7273 34.9042 26.5768 35.3077 25.0525C36.0408 22.2896 36.0408 16.525 36.0408 16.525C36.0408 16.525 36.0408 10.7604 35.3077 7.99754ZM14.9121 21.7588V11.2912L24.0811 16.5251L14.9121 21.7588Z" fill="white"/>
</svg>
