<svg width="464" height="464" viewBox="0 0 464 464" fill="none" xmlns="http://www.w3.org/2000/svg">
<path d="M348 43.5H116C96.7789 43.523 78.3516 51.1688 64.7602 64.7602C51.1688 78.3516 43.523 96.7789 43.5 116V348C43.523 367.221 51.1688 385.648 64.7602 399.24C78.3516 412.831 96.7789 420.477 116 420.5H348C367.221 420.477 385.648 412.831 399.24 399.24C412.831 385.648 420.477 367.221 420.5 348V116C420.477 96.7789 412.831 78.3516 399.24 64.7602C385.648 51.1688 367.221 43.523 348 43.5ZM116 72.5H348C359.537 72.5 370.601 77.083 378.759 85.2409C386.917 93.3987 391.5 104.463 391.5 116V283.997L364.197 256.65C356.044 248.53 345.006 243.972 333.5 243.972C321.994 243.972 310.956 248.53 302.803 256.65L271.193 288.26C268.453 290.892 264.8 292.362 261 292.362C257.2 292.362 253.547 290.892 250.807 288.26L190.196 227.65C182.044 219.53 171.006 214.972 159.5 214.972C147.994 214.972 136.956 219.53 128.804 227.65L72.5 283.997V116C72.5 104.463 77.083 93.3987 85.2409 85.2409C93.3987 77.083 104.463 72.5 116 72.5ZM348 391.5H116C104.463 391.5 93.3987 386.917 85.2409 378.759C77.083 370.601 72.5 359.537 72.5 348V325.003L149.35 248.153C152.064 245.47 155.727 243.965 159.544 243.965C163.36 243.965 167.023 245.47 169.737 248.153L230.347 308.763C238.5 316.883 249.537 321.441 261.044 321.441C272.55 321.441 283.587 316.883 291.74 308.763L323.35 277.153C326.064 274.47 329.727 272.965 333.544 272.965C337.36 272.965 341.023 274.47 343.737 277.153L391.587 325.003V348C391.587 353.72 390.459 359.383 388.267 364.667C386.076 369.95 382.864 374.749 378.815 378.79C374.767 382.83 369.961 386.033 364.673 388.214C359.386 390.395 353.72 391.511 348 391.5Z" fill="#767575"/>
<path d="M297.25 217.5C307.287 217.5 317.099 214.524 325.445 208.947C333.791 203.371 340.296 195.445 344.137 186.171C347.978 176.898 348.983 166.694 347.025 156.849C345.067 147.005 340.233 137.962 333.136 130.864C326.038 123.767 316.995 118.933 307.151 116.975C297.306 115.017 287.102 116.022 277.829 119.863C268.555 123.704 260.629 130.209 255.053 138.555C249.476 146.901 246.5 156.713 246.5 166.75C246.5 180.21 251.847 193.118 261.364 202.636C270.882 212.153 283.79 217.5 297.25 217.5ZM297.25 145C301.552 145 305.757 146.276 309.334 148.666C312.91 151.055 315.698 154.452 317.344 158.427C318.991 162.401 319.421 166.774 318.582 170.993C317.743 175.212 315.671 179.088 312.63 182.13C309.588 185.171 305.712 187.243 301.493 188.082C297.274 188.921 292.901 188.491 288.927 186.844C284.952 185.198 281.555 182.41 279.166 178.834C276.776 175.257 275.5 171.052 275.5 166.75C275.5 160.982 277.792 155.449 281.87 151.37C285.949 147.292 291.482 145 297.25 145Z" fill="#767575"/>
</svg>
