<svg width="33" height="38" viewBox="0 0 33 38" fill="none" xmlns="http://www.w3.org/2000/svg">
<path d="M30.6429 2.375H2.34978C1.05335 2.375 0 3.45117 0 4.77227V33.2277C0 34.5488 1.05335 35.625 2.34978 35.625H30.6429C31.9393 35.625 33 34.5488 33 33.2277V4.77227C33 3.45117 31.9393 2.375 30.6429 2.375ZM9.97366 30.875H5.08259V15.007H9.98103V30.875H9.97366ZM7.52812 12.8398C5.95915 12.8398 4.69219 11.5559 4.69219 9.98242C4.69219 8.40898 5.95915 7.125 7.52812 7.125C9.08973 7.125 10.3641 8.40898 10.3641 9.98242C10.3641 11.5633 9.0971 12.8398 7.52812 12.8398ZM28.3078 30.875H23.4167V23.1562C23.4167 21.3156 23.3799 18.948 20.8754 18.948C18.3268 18.948 17.9364 20.952 17.9364 23.0227V30.875H13.0453V15.007H17.7375V17.1742H17.8038C18.4594 15.9273 20.0578 14.6137 22.4371 14.6137C27.3871 14.6137 28.3078 17.9016 28.3078 22.1766V30.875Z" fill="white"/>
</svg>
