<svg width="33" height="37" viewBox="0 0 33 37" fill="none" xmlns="http://www.w3.org/2000/svg">
<g clip-path="url(#clip0_60_404)">
<path d="M16.5074 10.1894C11.8225 10.1894 8.04375 13.8966 8.04375 18.4927C8.04375 23.0888 11.8225 26.796 16.5074 26.796C21.1922 26.796 24.971 23.0888 24.971 18.4927C24.971 13.8966 21.1922 10.1894 16.5074 10.1894ZM16.5074 23.891C13.4799 23.891 11.0049 21.4701 11.0049 18.4927C11.0049 15.5154 13.4725 13.0945 16.5074 13.0945C19.5422 13.0945 22.0098 15.5154 22.0098 18.4927C22.0098 21.4701 19.5348 23.891 16.5074 23.891ZM27.2913 9.84975C27.2913 10.9265 26.4074 11.7865 25.3172 11.7865C24.2196 11.7865 23.3431 10.9193 23.3431 9.84975C23.3431 8.78022 24.227 7.91304 25.3172 7.91304C26.4074 7.91304 27.2913 8.78022 27.2913 9.84975ZM32.8969 11.8154C32.7717 9.22104 32.1676 6.923 30.2304 5.02964C28.3004 3.13628 25.958 2.5437 23.3136 2.41362C20.5882 2.26187 12.4192 2.26187 9.69375 2.41362C7.0567 2.53647 4.71429 3.12905 2.77701 5.02241C0.839733 6.91577 0.243081 9.21382 0.110492 11.8082C-0.0441956 14.482 -0.0441956 22.4962 0.110492 25.1701C0.235715 27.7644 0.839733 30.0624 2.77701 31.9558C4.71429 33.8492 7.04933 34.4417 9.69375 34.5718C12.4192 34.7236 20.5882 34.7236 23.3136 34.5718C25.958 34.449 28.3004 33.8564 30.2304 31.9558C32.1603 30.0624 32.7643 27.7644 32.8969 25.1701C33.0516 22.4962 33.0516 14.4892 32.8969 11.8154ZM29.3759 28.039C28.8013 29.4554 27.6891 30.5466 26.2379 31.1175C24.065 31.963 18.9087 31.7679 16.5074 31.7679C14.106 31.7679 8.94241 31.9558 6.77679 31.1175C5.33304 30.5539 4.22076 29.4626 3.63884 28.039C2.77701 25.9072 2.97589 20.8486 2.97589 18.4927C2.97589 16.1369 2.78438 11.071 3.63884 8.94643C4.21339 7.53003 5.32567 6.43882 6.77679 5.86792C8.94978 5.02241 14.106 5.21753 16.5074 5.21753C18.9087 5.21753 24.0723 5.02964 26.2379 5.86792C27.6817 6.43159 28.794 7.5228 29.3759 8.94643C30.2377 11.0783 30.0388 16.1369 30.0388 18.4927C30.0388 20.8486 30.2377 25.9144 29.3759 28.039Z" fill="white"/>
</g>
<defs>
<clipPath id="clip0_60_404">
<rect width="33" height="37" fill="white"/>
</clipPath>
</defs>
</svg>
