<svg width="19" height="19" viewBox="0 0 19 19" fill="none" xmlns="http://www.w3.org/2000/svg">
<path d="M1.01691 8.07554H14.7174L8.37138 1.7295C8.18769 1.53931 8.08604 1.28458 8.08834 1.02017C8.09064 0.755766 8.19669 0.50284 8.38366 0.315869C8.57063 0.128899 8.82356 0.0228436 9.08797 0.0205459C9.35237 0.0182483 9.6071 0.119892 9.7973 0.303585L17.8647 8.37101C18.0538 8.56012 18.16 8.81657 18.16 9.08397C18.16 9.35137 18.0538 9.60782 17.8647 9.79692L9.7973 17.8643C9.6071 18.048 9.35237 18.1497 9.08797 18.1474C8.82356 18.1451 8.57063 18.039 8.38366 17.8521C8.19669 17.6651 8.09064 17.4122 8.08834 17.1478C8.08604 16.8834 8.18769 16.6286 8.37138 16.4384L14.7174 10.0924H1.01691C0.749464 10.0924 0.492966 9.98615 0.303848 9.79703C0.114731 9.60791 0.0084877 9.35142 0.0084877 9.08397C0.0084877 8.81651 0.114731 8.56002 0.303848 8.3709C0.492966 8.18178 0.749464 8.07554 1.01691 8.07554Z" fill="#173967"/>
</svg>
