<svg width="35" height="35" viewBox="0 0 35 35" fill="none" xmlns="http://www.w3.org/2000/svg">
<path d="M17.5 0.546875C8.13702 0.546875 0.546875 8.13702 0.546875 17.5C0.546875 26.863 8.13702 34.4531 17.5 34.4531C26.863 34.4531 34.4531 26.863 34.4531 17.5C34.4531 8.13702 26.863 0.546875 17.5 0.546875ZM17.5 32.2656C9.3882 32.2656 2.73438 25.6994 2.73438 17.5C2.73438 9.38827 9.30063 2.73438 17.5 2.73438C25.6118 2.73438 32.2656 9.30063 32.2656 17.5C32.2656 25.6117 25.6994 32.2656 17.5 32.2656ZM27.1817 13.4695L14.8442 25.708C14.5226 26.027 14.0032 26.025 13.6842 25.7033L7.81361 19.7853C7.49458 19.4637 7.49663 18.9443 7.81826 18.6253L8.40068 18.0476C8.72231 17.7285 9.24171 17.7306 9.56074 18.0522L14.2759 22.8054L25.4486 11.7223C25.7703 11.4033 26.2896 11.4054 26.6087 11.727L27.1864 12.3094C27.5055 12.631 27.5034 13.1504 27.1817 13.4695Z" fill="white"/>
</svg>
