<svg width="311" height="207" viewBox="0 0 311 207" fill="none" xmlns="http://www.w3.org/2000/svg">
<rect width="311" height="207" fill="#D5D5D5"/>
<path d="M189.31 48.6638H121.77C116.174 48.6705 110.81 50.8964 106.853 54.8531C102.896 58.8098 100.67 64.1744 100.664 69.7701V137.31C100.67 142.906 102.896 148.27 106.853 152.227C110.81 156.184 116.174 158.41 121.77 158.416H189.31C194.906 158.41 200.27 156.184 204.227 152.227C208.184 148.27 210.409 142.906 210.416 137.31V69.7701C210.409 64.1744 208.184 58.8098 204.227 54.8531C200.27 50.8964 194.906 48.6705 189.31 48.6638ZM121.77 57.1063H189.31C192.669 57.1063 195.89 58.4405 198.264 60.8155C200.639 63.1904 201.974 66.4114 201.974 69.7701V118.678L194.025 110.716C191.652 108.352 188.438 107.025 185.089 107.025C181.739 107.025 178.526 108.352 176.152 110.716L166.95 119.919C166.152 120.685 165.089 121.113 163.982 121.113C162.876 121.113 161.813 120.685 161.015 119.919L143.37 102.274C140.997 99.9099 137.783 98.5828 134.434 98.5828C131.084 98.5828 127.871 99.9099 125.497 102.274L109.106 118.678V69.7701C109.106 66.4114 110.44 63.1904 112.815 60.8155C115.19 58.4405 118.411 57.1063 121.77 57.1063ZM189.31 149.974H121.77C118.411 149.974 115.19 148.64 112.815 146.265C110.44 143.89 109.106 140.669 109.106 137.31V130.615L131.479 108.243C132.269 107.461 133.335 107.023 134.446 107.023C135.557 107.023 136.624 107.461 137.414 108.243L155.059 125.887C157.432 128.251 160.645 129.578 163.995 129.578C167.345 129.578 170.558 128.251 172.931 125.887L182.134 116.685C182.924 115.904 183.99 115.466 185.101 115.466C186.212 115.466 187.279 115.904 188.069 116.685L201.999 130.615V137.31C201.999 138.975 201.671 140.624 201.033 142.162C200.395 143.7 199.459 145.097 198.281 146.274C197.102 147.45 195.703 148.382 194.164 149.017C192.624 149.652 190.975 149.977 189.31 149.974Z" fill="#767575"/>
<path d="M174.536 99.3188C177.458 99.3188 180.314 98.4523 182.744 96.8289C185.173 95.2054 187.067 92.898 188.185 90.1983C189.304 87.4987 189.596 84.528 189.026 81.6621C188.456 78.7961 187.049 76.1636 184.983 74.0973C182.916 72.0311 180.284 70.624 177.418 70.0539C174.552 69.4838 171.581 69.7764 168.882 70.8947C166.182 72.0129 163.875 73.9066 162.251 76.3362C160.628 78.7658 159.761 81.6223 159.761 84.5444C159.761 88.4628 161.318 92.2207 164.089 94.9915C166.859 97.7622 170.617 99.3188 174.536 99.3188ZM174.536 78.2125C175.788 78.2125 177.012 78.5839 178.053 79.2796C179.095 79.9754 179.906 80.9643 180.386 82.1213C180.865 83.2783 180.99 84.5514 180.746 85.7797C180.502 87.008 179.898 88.1362 179.013 89.0217C178.127 89.9073 176.999 90.5103 175.771 90.7546C174.543 90.9989 173.27 90.8735 172.113 90.3943C170.956 89.9151 169.967 89.1035 169.271 88.0622C168.575 87.0209 168.204 85.7967 168.204 84.5444C168.204 82.8651 168.871 81.2546 170.058 80.0671C171.246 78.8796 172.856 78.2125 174.536 78.2125Z" fill="#767575"/>
</svg>
