<svg width="564" height="318" viewBox="0 0 564 318" fill="none" xmlns="http://www.w3.org/2000/svg">
<rect width="564" height="318" fill="#EEEEEE"/>
<g clip-path="url(#clip0_0_1)">
<path d="M374.061 113.654C373.065 105.347 365.237 97.3814 357.047 96.3143C307.101 90.1084 256.595 90.1084 206.666 96.3143C198.468 97.3791 190.64 105.347 189.644 113.654C186.118 144.098 186.118 173.616 189.644 204.053C190.64 212.36 198.468 220.333 206.666 221.392C256.595 227.598 307.103 227.598 357.047 221.392C365.237 220.335 373.065 212.36 374.061 204.053C377.588 173.619 377.588 144.098 374.061 113.654ZM266.043 190.477V127.239L313.47 158.859L266.043 190.477Z" fill="#767575"/>
</g>
<defs>
<clipPath id="clip0_0_1">
<rect width="189.707" height="189.707" fill="white" transform="translate(187 64)"/>
</clipPath>
</defs>
</svg>
